<svg width="111" height="58" viewBox="0 0 111 58" fill="none" xmlns="http://www.w3.org/2000/svg">
<path d="M107.475 1.72583C102.952 0.572326 93.9121 -0.73541 77.8916 0.497323C79.5243 0.385012 91.2217 -0.313091 101.112 2.01968C101.112 2.01968 106.753 3.35511 105.996 4.53322C105.996 4.53322 105.982 4.54784 105.951 4.57438C105.778 4.74208 105.514 4.88901 105.184 5.01747C104.413 5.35941 102.986 5.79288 100.478 6.01096C102.919 5.99558 104.975 5.77057 106.532 5.51056C106.999 5.45364 107.463 5.3871 107.908 5.30556C108.749 5.12247 109.383 4.93324 109.855 4.74208C109.86 4.74054 109.873 4.73592 109.876 4.73515C109.876 4.73515 109.875 4.73477 109.875 4.73477C113.294 3.33742 107.859 1.82968 107.475 1.72583Z" fill="white"/>
<path d="M36.8035 28.7345C35.4891 31.5025 35.0322 34.9011 35.0322 37.9844C35.0322 48.5289 43.4578 57.6653 53.6609 57.6653C63.851 57.6653 72.8194 48.5045 72.8194 37.9844C72.8194 28.5377 67.8992 22.6333 62.979 20.2716C60.8141 21.0588 58.4524 22.0429 56.8779 22.8301C55.3035 23.6174 54.3194 24.011 51.5641 25.9791C59.6333 24.995 64.7503 30.8994 64.7503 37.9844C64.7503 42.8527 60.4205 49.0057 53.9258 49.2025C46.1869 49.2025 42.9046 42.511 42.9046 37.9844C42.5109 25.9791 63.7662 16.5507 77.9364 16.5507V13.0943C65.1439 12.2025 44.0968 13.3715 36.8035 28.7345Z" fill="white"/>
<path d="M87.8208 6.86106L87.8273 4.32162L89.5454 4.31529C90.0733 4.31529 90.5023 3.96912 90.5023 3.54334C90.5023 3.11794 90.073 2.77139 89.5454 2.77139L87.8273 2.77772C87.8273 2.25462 87.2265 1.96887 86.5966 1.96887C85.8094 1.96887 85.2552 2.22001 85.2552 2.77772H83.6445C83.1169 2.77772 82.6604 3.11756 82.6604 3.54334C82.6604 3.96912 83.1173 4.32162 83.6445 4.32162H85.2552L85.2486 6.82644C80.9888 6.70182 76.8129 6.28027 72.0798 5.16408C72.0798 5.16408 66.4383 3.82865 67.1953 2.65054C67.1953 2.65054 67.1972 2.64862 67.201 2.64515C68.2595 1.51978 70.6421 1.33349 72.0225 1.18164C69.1903 1.24682 66.0045 1.36259 63.336 2.44207C63.3315 2.44361 63.3178 2.44822 63.3155 2.44899L63.3163 2.44938C59.8977 3.84673 65.3321 5.35408 65.7166 5.45793C69.3013 6.37219 74.7607 7.43101 85.2486 7.19716V12.2029C85.2486 13.104 84.7292 13.6276 83.6379 13.6276C81.4796 13.6276 78.3241 12.9532 75.1752 12.9532V16.5327C77.1498 16.5463 83.1596 16.6063 84.8253 16.5327C87.5218 16.4134 87.8033 14.3216 87.8204 13.7774V7.10337C90.1263 7.02683 92.6123 6.89298 95.2993 6.68605C94.5495 6.73836 91.6702 6.91299 87.8208 6.86106Z" fill="white"/>
<path d="M5.04732 4.57438C5.01622 4.54822 5.00257 4.53322 5.00257 4.53322C4.24558 3.35511 9.887 2.01968 9.887 2.01968C19.7772 -0.313091 31.4742 0.385012 33.1069 0.497323C17.0868 -0.735409 8.04647 0.572326 3.52423 1.72583C3.13966 1.82968 -2.29469 3.33703 1.12392 4.73438C1.1243 4.73438 1.12278 4.73477 1.12316 4.73477C1.12544 4.73592 1.13909 4.74016 1.14364 4.7417C1.61582 4.93286 2.25031 5.12209 3.09112 5.30517C3.53561 5.38672 3.99982 5.45364 4.46706 5.51018C6.0239 5.77019 8.07985 5.9952 10.5207 6.01058C8.01272 5.7925 6.58558 5.35863 5.81493 5.01708C5.4846 4.889 5.22102 4.74207 5.04732 4.57438Z" fill="white"/>
<path d="M20.8615 13.3566C20.8786 13.9005 20.92 16.5323 23.8127 16.7291C28.8336 17.0707 32.8659 15.9419 36.4084 16.7291C40.0823 17.4639 41.254 18.0061 43.4935 19.0908C47.4297 16.5323 51.3658 15.1546 52.1531 14.9578C49.5946 13.1865 45.2648 11.6121 39.3605 11.6121C31.0946 12.0057 23.6159 15.7451 23.6159 12.9359V6.69188C34.1038 6.92573 39.3802 5.78137 42.9649 4.86711C43.3495 4.76326 48.7838 3.25591 45.3652 1.85856L45.366 1.85817C45.3637 1.85702 45.35 1.85279 45.3455 1.85125C42.713 0.785461 39.4524 0.655605 36.659 0.59082C38.0392 0.742901 40.4222 0.929097 41.4805 2.05433C41.4843 2.05779 41.4862 2.05972 41.4862 2.05972C42.2432 3.23783 36.6017 4.57326 36.6017 4.57326C31.8686 5.68945 27.8757 6.17364 23.6159 6.29826V4.36397L25.2798 4.30133C25.8074 4.30133 26.2363 3.95516 26.2363 3.52938C26.2363 3.10398 25.807 2.75743 25.2798 2.75743H23.6159C23.4937 2.4328 22.7601 2.16529 22.2382 2.16529C21.7164 2.16529 20.9829 2.4328 20.8607 2.75743H19.2589C18.731 2.75743 18.302 3.1036 18.302 3.52938C18.302 3.95516 18.7314 4.30133 19.2589 4.30133H20.8607V6.27024C17.0113 6.32217 14.1324 6.14754 13.3818 6.096C16.0689 6.30293 18.5549 6.43678 20.8607 6.51332L20.8615 13.3566Z" fill="white"/>
</svg>
