<svg width="1440" height="680" fill="none" xmlns="http://www.w3.org/2000/svg"><path fill-rule="evenodd" clip-rule="evenodd" d="m2365.29-542.646-.02 4.946 4.95.067a4911 4911 0 0 0 31.11.321c-10.49.393-20.89.76-31.23 1.103l-4.83.16v319.329c-.4 12.389-3.84 42.317-22.37 69.726-18.37 27.18-51.97 52.483-114.02 55.227-69.68 3.081-225.32 2.023-324.45 1.298V-243.972c52.58 3.682 92.59 8.969 128.85 13.761l4.13.545c44.84 5.92 84.5 10.965 135.72 10.965 26.45 0 46.83-6.34 60.63-18.959 13.87-12.688 20.29-30.995 20.29-53.191v-241.053l-5.11.114c-493.86 11.012-750.73-38.839-919.24-81.814-9.24-2.496-77.09-21.328-122.56-47.535-11.35-6.54-21.07-13.414-28.1-20.447-7.08-7.082-10.97-13.872-11.62-20.241-.62-6.106 1.63-12.885 9.24-20.381 7.72-7.601 20.66-15.615 40.53-23.737l.28-.116.36-.12.14-.046.13-.055c94.02-38.034 201.92-50.528 306.56-55.692a530.108 530.108 0 0 0-19.44 4.057c-42.59 9.754-84.33 25.444-110.34 53.017a2.92 2.92 0 0 0-.24.23l-.04.034-.01.014-.01.006v.003m477.85 493.692.2.01 2.66.139c67.79 3.597 115.88 9.953 158.63 15.602 46.57 6.153 86.79 11.469 139.21 11.469 51.44 0 75.92-24.68 75.92-67.15v-235.94l-5 .109c-491.07 10.576-747.23-39.139-915.62-82.086-17.89-4.832-267.7-74.121-119.16-139.255a248.33 248.33 0 0 1 5.97-2.526l.03-.013.03-.011-.04-.018.03-.009.02-.01.92-.307c1.75-.712 3.52-1.414 5.29-2.108 106.59-41.826 230.1-51.803 345.94-55.71 19.66-.663 39.09-1.152 58.19-1.591-4.09.45-8.37.906-12.8 1.38h-.01c-13.73 1.466-29 3.095-44.99 5.202-60.97 8.034-132.41 23.018-169.45 62.399-.18.163-.27.254-.27.254m479.77 655.43c6.18.043 12.7.091 19.53.141 98.61.724 260.19 1.909 331.67-1.252 127.1-5.62 140.36-104.216 141.17-129.869v-314.571a7659.022 7659.022 0 0 0 155.31-6.757c63.07-3.376 128.75-7.641 197.2-12.913-24.29 1.695-96 6.113-197.38 7.916-46.12.82-98.38 1.098-155.11.333l.31-119.684v-.01l80.98-.298c24.88 0 45.1-16.316 45.1-36.385 0-20.051-20.24-36.385-45.1-36.385l-75.98.28-5 .018c0-.084-.01-.168-.01-.252-.19-24.495-28.42-37.872-58-37.872-37.11 0-63.23 11.837-63.23 38.124h-75.92c-24.86 0-46.38 16.018-46.38 36.087 0 20.069 21.53 36.683 46.38 36.683h75.92l-.01 5-.28 108.06-.02 5v.002c-1.66-.049-3.33-.098-5-.149-199.05-6.057-394.46-26.031-615.7-78.204 0 0-265.9-62.944-230.22-118.473l-3.55-3.519-.37.373-.29.443c-2.69 4.187-4.07 8.607-4.08 13.166-.02 4.527 1.31 8.878 3.55 12.973 4.42 8.058 12.64 15.61 22.82 22.62 20.46 14.086 50.85 27.334 81.93 38.7 31.18 11.401 63.44 21.044 87.88 27.832 12.23 3.395 22.51 6.081 29.75 7.918a907.585 907.585 0 0 0 10.65 2.646c.25.061.45.107.58.138l.15.036.04.009.01.002 1.15-4.862-1.15 4.863v.001c223.49 52.704 420.66 72.604 621.71 78.485l5.13.15.01-5.135.31-118.062.01-5.013h-80.93c-11.34 0-21.84-3.802-29.42-9.749-7.59-5.954-11.96-13.785-11.96-21.934 0-8.13 4.35-15.8 11.91-21.603 7.56-5.804 18.07-9.484 29.47-9.484h80.92v-5c0-11.093 5.33-19.071 15.14-24.555 10.11-5.652 24.94-8.569 43.09-8.569 14.18 0 27.74 3.231 37.57 9.108 9.75 5.825 15.44 13.93 15.44 24.016v5.019l5.01-.019 80.97-.298h.01c23.15.004 40.09 15.046 40.09 31.385 0 16.358-16.93 31.385-40.1 31.385h-.02l-80.98.298-4.97.018-.01 4.969-.31 119.694m-495 452.132c-328.83 7.21-730.19 117.116-1051.281 293.17-166.168 91.109-311.086 200.067-413.353 321.92-102.263 121.847-162.083 256.853-157.419 399.87.02 107.724 39.041 240.994 124.044 347.424 85.15 106.62 216.417 186.25 400.431 186.25h.076l.075-.01c154.691-4.68 283.487-80.32 373.507-183.52 89.97-103.13 141.54-234.13 141.54-350.226 0-168.155-60.73-322.559-169.64-429.128-105.32-103.063-255.418-161.086-438.313-143.773 101.977-71.862 149.6-95.273 206.737-123.361 8.828-4.339 17.882-8.79 27.399-13.548C987.6 177.8 1097.77 131.85 1199.15 94.909c229.53 111.078 459.09 387.305 459.09 829.455 0 493.206-420.6 922.636-898.013 922.636-477.858 0-873.043-428.09-873.043-922.636 0-144.945 21.495-304.306 83.003-433.843l-4.245-2.016 4.245 2.016C141.21 130.276 473.59-63.87 839.154-162.694c352.067-95.176 734.317-101.75 1031.137-83.351V-90.514Zm7.59-.148-2.59-.018v-155.052c8.11.512 16.16 1.043 24.14 1.591v153.258c-7.15.023-14.33.097-21.55.221Zm.02 5C1210.35-74.18 234.928 365.95 253.237 924.364c0 213.356 154.71 528.756 519.475 528.756 306.118-9.28 510.198-299.3 510.198-528.756 0-330.932-236.85-607.21-611.241-567.039-3.413.366-6.837.759-10.273 1.178 2.854-2.038 5.667-4.041 8.441-6.009 107.31-76.11 156.074-100.082 214.642-128.874 8.826-4.338 17.874-8.786 27.378-13.538 74.211-37.106 185.523-83.489 287.563-120.593 231.91 111.316 463.82 389.611 463.82 834.875 0 495.856-422.72 927.636-903.013 927.636-480.912 0-878.043-430.64-878.043-927.636 0-145.33 21.536-305.519 83.487-435.987C303.42-223.072 1266.96-288.708 1872.43-250.921" fill="#fff" fill-opacity=".3"/><path d="M-941.906-568.358c46.401.834 99.053 1.123 156.247.352l2.466-.034V-665.809h-78.001c-24.013 0-42.601-15.671-42.601-33.885 0-18.213 18.571-33.885 42.601-33.885h77.232l.609-1.619c1.202-3.197 4.025-6.503 8.276-9.698 4.217-3.17 9.643-6.083 15.724-8.56 12.18-4.96 26.652-8.033 38.585-8.033s26.408 3.073 38.59 8.033c6.083 2.477 11.51 5.39 15.727 8.56 4.252 3.195 7.075 6.501 8.278 9.698l.609 1.619h80.16c23.993 0 42.583 15.689 42.583 33.885 0 18.215-18.571 33.885-42.583 33.885h-.047l-.047.002-78.43 2.953-2.405.09v96.153l2.573-.075c200.946-5.879 389.318-28.722 612.576-81.372l.002-.001-.576-2.432c.576 2.432.577 2.432.58 2.432l.009-.003.037-.009.147-.034.573-.138.87-.21 1.356-.33c1.945-.477 4.791-1.182 8.4-2.098A1408.157 1408.157 0 0 0-2.1-658.785c24.405-6.778 56.597-16.402 87.69-27.771 31.045-11.352 61.187-24.514 81.371-38.412 10.068-6.932 17.91-14.215 22.046-21.761 2.086-3.807 3.265-7.744 3.25-11.763-.014-4.035-1.23-7.995-3.691-11.824l-.139-.217-.181-.184-1.783 1.753-1128.37 200.606Zm0 0a7654.843 7654.843 0 0 0 156.296 6.811l2.417.08v2.418l.036 322.512.031.993c.417 13.685 1.513 49.602 18.43 83.545 17.262 34.633 51.079 67.391 118.309 71.965 106.31 7.234 203.197.457 292.974-5.822 9.973-.697 19.859-1.389 29.66-2.054 97.93-6.648 187.52-10.71 271.399 7.924C120.343-45.444 176.023-19.87 280.898 30.912 458.702-84.435 636.243-148.754 683.343-162.035 562.692-243.93 360.75-316.214 86.333-316.224c-163.7 7.802-320.82 43.476-448.122 72.38-23.961 5.44-46.867 10.641-68.561 15.371-68.35 14.901-124.914 25.186-164.433 23.362-19.759-.912-35.652-4.86-46.645-13.122-11.148-8.379-16.905-20.92-16.905-38.093v-296.863l2.555.057c494.073 11.016 742.543-42.886 911.305-85.927 9.153-2.472 77.364-21.381 123.176-47.787 11.443-6.596 21.376-13.597 28.619-20.846 7.268-7.274 11.603-14.569 12.338-21.754.722-7.052-1.976-14.541-9.972-22.417-8.049-7.928-21.331-16.092-41.336-24.269l-.421-.172-.104-.033-.259-.085-.07-.023-.067-.028c-105.685-42.786-233.036-53.472-350.088-57.581m-959.249 265.696L17.343-834.054m0 0c19.887 2.628 40.901 5.997 61.473 10.708 42.519 9.736 83.66 25.305 109.138 52.348.073.068.133.124.179.169l.074.072.024.024.009.009.004.004.001.001-170.902-63.335Z" stroke="#fff" stroke-opacity=".3" stroke-width="5"/></svg>